<?xml version="1.0" encoding="UTF-8"?>
<svg xmlns="http://www.w3.org/2000/svg" width="83.7" height="83.5" version="1.1" viewBox="0 0 83.7 83.5">
  <defs>
    <style>
      .cls-1 {
        fill: #231f20;
      }
    </style>
  </defs>
  <!-- Generator: Adobe Illustrator 28.7.5, SVG Export Plug-In . SVG Version: 1.2.0 Build 176)  -->
  <g>
    <g id="Layer_1">
      <polygon class="cls-1" points="83.7 42.4 73.1 42.4 53.5 12.3 53.5 42.4 43.5 42.4 43.5 0 54.3 0 73.3 29.4 73.3 0 83.7 0 83.7 42.4"/>
      <path class="cls-1" d="M37.4,46.6c-3.3-2.1-7.7-3.1-13.3-3.1H0v40h11.5v-14.4h11.7c6.1,0,10.9-1,14.2-2.9,3.3-2,5-5.3,5-10s-1.7-7.5-5-9.6ZM28.6,60.8c-1.5,1-3.7,1.4-6.4,1.4h-10.8v-11.8h10.8c2.7,0,4.8.4,6.4,1.3,1.5.9,2.3,2.4,2.3,4.5s-.7,3.6-2.3,4.6Z"/>
      <path class="cls-1" d="M82.5,80.3c-.2-.7-.3-1.9-.3-3.7v-2.7c0-2.8-.5-4.9-1.4-6.3-.9-1.4-2.5-2.4-4.8-3.2,2.7-.8,4.6-2.1,5.8-3.9,1.2-1.8,1.8-3.7,1.8-5.6s-.3-3-.9-4.2c-.6-1.2-1.5-2.4-2.5-3.4-1.3-1.2-2.9-2.2-4.7-2.8-1.8-.6-4.5-1-7.9-1h-24v40h10v-15.7h10.6c3,0,5.1.4,6.2,1.3,1.1.9,1.7,2.6,1.7,5.1v3.7c0,1.2.2,2.3.5,3.5.1.5.4,1.3.7,2.1h10.6v-1.4c-.6-.5-1-1.1-1.2-1.9ZM70.3,60.6c-1.2.4-2.9.7-5.2.7h-11.6v-10.8h11.9c2.2,0,3.9.2,5,.7,2,.8,3,2.5,3,4.9s-1,3.7-3.1,4.5Z"/>
      <path class="cls-1" d="M12,30.9s-.2-1.5-.6-3.1-.4-1.3-.7-2.1H.2v1.4c.3.2.5.5.7.8.2.3.3.7.4,1,.2.7.3,1.9.3,3.7h0c.3,5.6,4.5,7.6,10.6,9,2.6.6,5.9.6,9.5.6,8.5,0,14.4-1.7,17.7-5.2,1.9-2.1,2.9-4.8,2.9-8.4V0h-11.5v26.1c-.1,3.2-.2,4.6-1.3,6.2-.9,1.3-2.5,2.7-6,3-.9,0-2.7.1-2.7.1-6.2-.4-8.4-1.8-8.8-4.5Z"/>
    </g>
  </g>
</svg>